<svg width="903" height="181" viewBox="0 0 903 181" fill="none" xmlns="http://www.w3.org/2000/svg">
<path d="M221.147 51.9899C229.242 59.9157 233.376 71.4599 233.376 86.7947V145.549C233.376 146.755 232.343 147.789 231.137 147.789H210.813C209.608 147.789 208.574 146.755 208.574 145.549V90.0684C208.574 80.7642 206.335 73.6998 202.029 69.0477C197.724 64.3955 191.351 61.9833 183.256 61.9833C174.128 61.9833 166.894 64.7402 161.555 70.2538C156.215 75.7674 153.632 83.6932 153.632 94.0313V145.549C153.632 146.755 152.598 147.789 151.393 147.789H130.897C129.691 147.789 128.658 146.755 128.658 145.549V48.5439C128.658 42.6856 135.72 39.5842 140.025 43.5471L152.426 55.0913C156.56 50.0946 161.727 46.4762 167.927 43.8917C174.128 41.3072 181.189 40.1011 189.112 40.1011C202.374 40.2734 213.052 44.2363 221.147 51.9899Z" fill="#303030"/>
<path d="M281.257 142.448C272.473 137.795 265.584 131.248 260.761 122.978C255.766 114.707 253.355 105.231 253.355 94.7205C253.355 84.2101 255.766 74.9059 260.761 66.6354C265.756 58.365 272.473 51.9899 281.257 47.3377C290.041 42.6856 299.858 40.2734 311.053 40.2734C321.56 40.2734 330.688 42.341 338.611 46.6485C345.845 50.6114 351.528 55.9528 355.49 63.0171C356.006 64.0509 355.662 65.4293 354.629 65.9462L339.128 74.9059C338.094 75.4228 336.888 75.2505 336.2 74.2167C333.272 70.0814 329.827 66.98 325.866 64.9124C321.215 62.5002 316.22 61.2941 310.881 61.2941C301.581 61.2941 293.83 64.3955 287.802 70.4261C281.774 76.4566 278.674 84.5547 278.674 94.7205C278.674 104.886 281.774 112.984 287.802 119.015C293.83 125.045 301.581 128.147 311.053 128.147C316.565 128.147 321.56 126.941 326.038 124.528C329.999 122.288 333.616 119.187 336.372 115.224C337.061 114.363 338.266 114.018 339.3 114.535L354.629 123.494C355.662 124.184 356.006 125.39 355.49 126.596C351.356 133.66 345.672 139.174 338.439 143.137C330.516 147.444 321.387 149.684 311.053 149.684C299.858 149.34 290.041 147.1 281.257 142.448Z" fill="#303030"/>
<path d="M395.619 142.448C387.008 137.795 380.29 131.248 375.468 122.978C370.645 114.707 368.234 105.231 368.234 94.7205C368.234 84.2101 370.645 74.9059 375.468 66.6354C380.29 58.365 387.008 51.9899 395.619 47.3377C404.231 42.6856 413.876 40.2734 424.727 40.2734C435.577 40.2734 445.395 42.6856 454.006 47.3377C462.618 51.9899 469.335 58.365 474.158 66.6354C478.98 74.9059 481.392 84.2101 481.392 94.7205C481.392 105.231 478.98 114.707 474.158 122.978C469.335 131.248 462.618 137.795 454.006 142.448C445.395 147.1 435.577 149.34 424.727 149.34C413.876 149.34 404.231 147.1 395.619 142.448ZM447.289 118.842C453.318 112.812 456.245 104.714 456.245 94.7205C456.245 84.727 453.318 76.8012 447.289 70.5984C441.261 64.5678 433.683 61.4664 424.555 61.4664C415.426 61.4664 407.848 64.5678 401.992 70.5984C396.136 76.6289 393.208 84.727 393.208 94.7205C393.208 104.714 396.136 112.812 401.992 118.842C407.848 124.873 415.426 127.974 424.555 127.974C433.855 127.974 441.433 125.045 447.289 118.842Z" fill="#303030"/>
<path d="M524.106 147.961C525.311 147.961 526.345 146.927 526.345 145.721V85.7608V84.21C526.345 76.8011 528.584 71.6321 533.062 67.6692C537.54 63.7062 543.051 61.6386 551.835 61.6386C551.835 61.6386 555.969 61.6386 560.447 62.1555C561.825 62.3278 563.03 61.294 563.03 59.9156V43.8916C563.03 42.8578 562.169 41.824 561.136 41.6517C557.002 40.9625 552.007 40.4456 547.529 40.4456C532.373 40.4456 522.211 44.2362 513.772 51.6452C505.504 59.2264 501.371 70.426 501.371 85.5884V145.721C501.371 146.927 502.404 147.961 503.61 147.961H524.106Z" fill="#303030"/>
<path d="M101.79 66.4631C97.1398 58.1927 90.7671 51.6452 82.6721 47.1654C74.5771 42.5133 65.2766 40.2734 54.9426 40.2734C44.4362 40.2734 34.9634 42.6856 26.6961 47.3377C18.2568 51.9899 11.7119 58.5373 7.06157 66.8077C2.41127 75.0782 0 84.3824 0 94.8928C0 105.403 2.41126 114.879 7.2338 123.15C12.0563 131.42 18.9457 137.968 27.9018 142.62C36.8579 147.272 47.0198 149.512 58.7317 149.512C67.8601 149.512 76.1273 148.134 83.3611 145.204C90.0782 142.62 95.5897 138.657 100.24 133.66C100.929 132.799 100.929 131.593 100.24 130.731L89.7337 118.67C88.8726 117.809 87.4947 117.636 86.6335 118.498C79.3997 125.217 70.2713 128.491 59.4206 128.491C50.2922 128.491 42.5417 126.251 36.3413 121.599C30.1409 116.947 26.3517 110.744 24.8016 102.991H105.062C106.957 102.991 108.507 101.612 108.507 99.7173C108.679 97.9942 108.679 96.7881 108.679 95.582C108.679 84.3824 106.268 74.9059 101.79 66.4631ZM34.6189 67.3246C40.1305 62.6725 46.8475 60.2603 54.7702 60.2603C62.8652 60.2603 69.5824 62.6725 75.0938 67.4969C79.9164 71.6322 83.0165 76.9735 84.3944 83.3486H25.146C26.5239 76.8012 29.7964 71.4599 34.6189 67.3246Z" fill="#303030"/>
<path d="M645.531 147.961H663.96C665.166 147.961 666.199 146.927 666.199 145.721V85.5884C666.199 70.4259 662.066 59.0541 653.798 51.6451C645.531 44.0639 631.236 39.9287 615.563 39.9287C605.573 39.9287 599.2 40.6179 592.311 41.6517C591.278 41.824 590.417 42.8578 590.417 43.8916V59.9156C590.417 61.294 591.622 62.3278 593 62.1555C602.645 60.7771 624.174 58.1926 634.508 67.1522C638.986 71.1151 641.225 76.8011 641.225 84.3823V85.933H613.668C598.339 85.933 587.144 88.8621 580.082 94.5481C573.021 100.406 569.404 107.987 569.404 117.636C569.404 123.667 570.954 129.18 574.227 134.005C577.499 138.829 582.149 142.62 588.005 145.377C594.033 148.133 600.923 149.512 609.018 149.512C619.007 149.512 633.475 145.721 643.12 136.072V145.893C643.292 146.927 644.326 147.961 645.531 147.961ZM641.398 118.842C636.747 126.079 623.83 131.248 614.529 131.248C608.157 131.248 603.162 129.869 599.545 127.285C595.928 124.7 594.206 121.082 594.206 116.602C594.206 107.126 601.439 102.474 615.735 102.474H641.398V118.842Z" fill="#303030"/>
<path d="M838.949 2.53931L822.415 64.5677C818.97 77.4903 826.721 90.9298 839.638 94.3758L901.642 110.916C903.365 104.197 900.264 97.1326 894.064 94.0312L860.651 77.4903C851.867 73.3551 846.7 64.2231 847.561 54.5742L850.144 17.8741C850.489 10.8098 845.838 4.43462 838.949 2.53931Z" fill="#F5BC18"/>
<path d="M856.517 64.7399C858.756 68.7029 862.373 71.632 866.334 73.0104C867.368 73.355 868.573 73.355 869.607 72.6658L886.658 62.8446C893.203 59.054 895.442 50.439 891.308 43.8915C887.347 37.6887 879.079 35.9657 872.879 39.7563L856.172 49.4052C855.139 49.9221 854.45 50.9559 854.278 52.162C853.589 56.2972 854.278 60.777 856.517 64.7399Z" fill="#F5BC18"/>
<path d="M723.381 63.1894L785.385 79.7303C798.302 83.1763 811.736 75.4228 815.181 62.5002L831.716 0.471834C824.998 -1.25118 817.937 1.85024 814.837 8.05307L798.302 41.4795C794.169 50.2668 785.04 55.4359 775.395 54.5744L738.709 51.9899C731.82 51.6453 725.275 56.2974 723.381 63.1894Z" fill="#40C1EF"/>
<path d="M785.557 45.6145C789.519 43.3746 792.447 39.7563 793.825 35.7934C794.169 34.7596 794.169 33.5535 793.48 32.5196L783.663 15.4619C779.874 8.91439 771.262 6.67447 764.717 10.8097C758.517 14.7727 756.794 23.0431 760.584 29.2459L770.229 45.9591C770.745 46.9929 771.779 47.6821 772.984 47.8544C777.118 48.7159 781.596 48.0267 785.557 45.6145Z" fill="#40C1EF"/>
<path d="M784.179 178.286L800.714 116.258C804.158 103.335 796.408 89.8958 783.49 86.4498L721.486 69.9089C719.764 76.6286 722.864 83.693 729.064 86.7944L762.478 103.335C771.262 107.47 776.429 116.602 775.567 126.251L772.984 162.951C772.639 169.843 777.29 176.391 784.179 178.286Z" fill="#8FC640"/>
<path d="M766.611 116.085C764.372 112.122 760.755 109.193 756.794 107.815C755.76 107.47 754.555 107.47 753.521 108.159L736.47 117.981C729.925 121.771 727.686 130.386 731.82 136.934C735.781 143.137 744.048 144.86 750.249 141.069L766.955 131.42C767.989 130.903 768.678 129.869 768.85 128.663C769.711 124.528 769.022 120.048 766.611 116.085Z" fill="#8FC640"/>
<path d="M899.748 117.636L837.744 101.095C824.826 97.6496 811.392 105.403 807.947 118.325L791.413 180.354C798.13 182.077 805.191 178.975 808.292 172.772L824.826 139.346C828.96 130.559 838.088 125.39 847.733 126.251L884.419 128.836C891.48 129.18 897.853 124.528 899.748 117.636Z" fill="#F15A52"/>
<path d="M837.571 135.211C833.61 137.451 830.682 141.069 829.304 145.032C828.96 146.066 828.96 147.272 829.649 148.306L839.466 165.364C843.255 171.911 851.867 174.151 858.412 170.016C864.612 166.053 866.334 157.782 862.545 151.579L852.9 134.866C852.383 133.832 851.35 133.143 850.144 132.971C846.183 132.109 841.705 132.799 837.571 135.211Z" fill="#F15A52"/>
</svg>
